<?xml version="1.0" standalone="no"?>
<!DOCTYPE svg PUBLIC "-//W3C//DTD SVG 20010904//EN"
 "http://www.w3.org/TR/2001/REC-SVG-20010904/DTD/svg10.dtd">
<svg version="1.0" xmlns="http://www.w3.org/2000/svg"
 width="1600.000000pt" height="1600.000000pt" viewBox="0 0 1600.000000 1600.000000"
 preserveAspectRatio="xMidYMid meet">

<g transform="translate(0.000000,1600.000000) scale(0.100000,-0.100000)"
fill="#000000" stroke="none">
<path d="M2755 9311 c-46 -21 -1011 -986 -1038 -1037 -25 -49 -28 -95 -9 -146
14 -40 91 -122 509 -546 280 -284 507 -507 527 -516 68 -32 145 -15 202 45
l29 30 3 287 c2 256 5 288 20 300 25 19 635 16 672 -3 39 -22 720 -710 720
-728 0 -15 -27 -17 -295 -17 -238 0 -301 -3 -323 -14 -36 -19 -504 -501 -519
-535 -17 -36 -16 -97 2 -134 9 -18 104 -123 213 -234 405 -415 868 -878 901
-900 41 -28 107 -31 154 -7 45 23 386 362 403 401 19 45 17 92 -5 129 -11 18
-96 110 -190 205 -94 96 -171 182 -171 192 0 16 48 17 863 17 961 0 906 -4
954 69 23 34 23 38 23 363 0 364 -2 377 -61 419 -34 24 -37 24 -301 27 l-267
3 -372 371 c-275 275 -368 373 -358 379 8 5 363 8 799 6 l785 -2 80 -38 c113
-55 108 -53 340 -127 212 -68 291 -146 271 -268 -7 -47 -33 -81 -82 -110 -34
-20 -50 -22 -130 -20 -80 3 -96 6 -133 31 -39 26 -55 50 -90 140 l-11 27 -225
0 -225 0 0 -48 c0 -155 129 -337 294 -416 137 -65 210 -80 401 -79 139 1 182
4 236 21 262 79 414 258 427 504 8 148 -42 267 -152 364 -50 44 -185 117 -276
149 -25 8 -92 31 -150 51 -145 50 -244 99 -280 140 -27 31 -30 41 -30 100 0
86 19 117 89 151 57 26 88 27 173 3 46 -13 98 -66 119 -122 l17 -43 231 -3
231 -2 0 38 c0 52 -25 135 -63 205 -53 100 -174 195 -312 245 -121 43 -347 56
-490 26 -43 -9 -88 -13 -103 -9 -15 4 -872 9 -1906 10 -1033 2 -1882 7 -1887
12 -4 4 -9 132 -11 283 -3 271 -3 275 -27 308 -24 35 -95 72 -134 72 -12 0
-40 -9 -62 -19z"/>
<path d="M8067 8643 c-4 -3 -7 -408 -7 -898 0 -741 2 -894 14 -904 9 -8 162
-10 552 -9 l539 3 0 170 0 170 -330 5 -330 5 -3 202 -2 203 292 2 293 3 3 163
2 162 -72 0 c-40 0 -172 2 -293 3 l-220 2 -3 187 -2 188 332 2 333 3 0 170 0
170 -546 3 c-300 1 -549 -1 -552 -5z"/>
<path d="M9466 8634 c-8 -21 -8 -1733 0 -1773 l7 -32 201 3 c111 2 207 7 214
11 17 12 18 1777 0 1795 -9 9 -70 12 -214 12 -175 0 -203 -2 -208 -16z"/>
<path d="M8190 6588 c-47 -13 -107 -59 -139 -105 -23 -33 -26 -48 -26 -118 1
-65 5 -87 23 -117 50 -80 150 -125 257 -115 99 9 169 54 209 134 23 46 21 153
-4 202 -52 103 -194 155 -320 119z"/>
<path d="M15156 6580 c-128 -50 -188 -184 -136 -302 47 -106 153 -160 285
-143 153 19 248 162 201 303 -43 128 -211 196 -350 142z"/>
<path d="M6970 6364 c-224 -26 -398 -124 -487 -273 -75 -125 -85 -352 -20
-477 71 -137 213 -230 482 -315 163 -51 254 -90 305 -130 56 -45 75 -88 67
-162 -4 -43 -10 -56 -44 -88 -87 -81 -242 -79 -330 4 -31 29 -46 57 -57 110
-6 26 -8 27 -76 27 -299 1 -383 0 -388 -5 -15 -15 3 -111 36 -190 54 -128 182
-245 324 -294 35 -12 77 -27 93 -33 42 -15 349 -22 410 -10 96 20 131 31 188
60 137 70 225 167 276 306 21 59 26 88 26 176 0 123 -17 182 -74 258 -79 107
-172 166 -381 242 -218 79 -255 93 -306 116 -72 34 -121 85 -128 137 -17 122
53 197 186 197 98 0 178 -57 204 -147 l11 -38 231 -3 232 -2 0 36 c0 97 -56
227 -130 303 -126 129 -277 188 -500 195 -63 2 -131 2 -150 0z"/>
<path d="M11080 5979 c-222 -26 -435 -179 -522 -375 -51 -117 -62 -180 -63
-359 0 -160 2 -175 28 -255 33 -98 96 -206 161 -272 50 -51 147 -121 186 -133
14 -4 30 -11 35 -15 25 -18 122 -41 213 -51 247 -27 450 39 608 196 64 64 88
97 122 167 23 48 42 94 42 102 0 14 -28 16 -229 16 -226 0 -229 0 -243 -22
-32 -49 -81 -86 -135 -103 -145 -46 -297 32 -347 177 -34 102 -81 93 486 96
l497 2 7 47 c4 25 4 85 0 132 -21 281 -155 489 -379 590 -101 46 -117 50 -226
61 -115 11 -134 11 -241 -1z m233 -353 c85 -31 152 -108 163 -189 l7 -47 -283
0 -282 0 6 23 c26 105 102 189 196 218 41 12 152 9 193 -5z"/>
<path d="M13709 5976 c-240 -36 -428 -235 -495 -522 -23 -100 -23 -298 -1
-400 47 -208 156 -374 303 -460 228 -134 554 -97 699 80 63 78 68 69 63 -106
-4 -137 -7 -159 -30 -208 -50 -109 -138 -162 -272 -164 -99 -1 -166 20 -226
71 -23 20 -49 52 -56 70 l-14 33 -210 0 c-170 0 -212 -3 -216 -14 -8 -21 23
-123 59 -195 40 -80 140 -184 224 -233 145 -85 343 -121 555 -100 136 14 223
39 304 89 174 108 275 265 303 468 7 54 18 1428 12 1558 l-1 27 -215 0 -215 0
0 -95 c0 -52 -3 -95 -6 -95 -4 0 -32 26 -63 59 -69 72 -173 124 -278 140 -86
13 -123 13 -224 -3z m354 -382 c69 -23 145 -96 180 -174 28 -59 30 -75 31
-170 0 -96 -2 -110 -30 -170 -128 -275 -505 -247 -589 44 -27 92 -18 233 20
310 71 141 239 211 388 160z"/>
<path d="M9580 5974 c-96 -19 -214 -83 -272 -150 -17 -19 -34 -34 -39 -34 -4
0 -10 39 -11 88 l-3 87 -213 3 -212 2 2 -717 3 -718 199 -3 c138 -2 203 1 212
9 12 9 14 85 14 418 0 441 4 477 55 551 91 131 321 149 426 33 84 -92 89 -132
88 -605 -1 -213 2 -391 6 -397 4 -7 74 -11 205 -11 193 0 200 1 211 21 8 16
10 152 6 493 -4 445 -5 475 -26 541 -31 102 -69 171 -130 237 -102 111 -194
149 -371 153 -69 2 -136 1 -150 -1z"/>
<path d="M12955 5973 c-98 -21 -186 -72 -267 -155 -45 -47 -78 -73 -81 -66 -2
7 -2 59 1 116 l5 102 -222 0 -221 0 0 -709 c0 -590 2 -710 14 -720 9 -8 75
-11 217 -9 l204 3 5 395 5 395 27 55 c48 96 142 140 299 140 48 0 94 3 103 6
14 5 16 35 16 230 l0 224 -42 -1 c-24 -1 -52 -3 -63 -6z"/>
<path d="M8060 5262 c0 -537 3 -711 12 -720 9 -9 69 -12 210 -12 185 0 198 1
208 19 7 14 9 248 8 718 l-3 698 -217 3 -218 2 0 -708z"/>
<path d="M15047 5964 c-8 -9 -9 -1341 -1 -1394 l7 -40 211 2 211 3 0 715 0
715 -211 3 c-115 1 -213 -1 -217 -4z"/>
<path d="M9146 3919 c-3 -17 -6 -46 -6 -64 l0 -32 -40 19 c-35 18 -44 19 -71
8 -33 -14 -59 -63 -59 -111 0 -16 11 -47 25 -69 21 -33 31 -40 58 -40 18 0 43
7 55 16 22 15 24 15 37 -2 7 -11 16 -16 20 -13 7 8 13 242 7 287 -6 41 -18 41
-26 1z m-22 -111 c23 -33 21 -113 -4 -138 -45 -45 -117 -7 -127 67 -5 36 -2
45 22 67 36 34 87 35 109 4z"/>
<path d="M9914 3936 c-7 -17 -1 -282 6 -289 11 -11 60 -19 60 -9 0 5 -9 12
-20 15 -19 5 -20 14 -20 145 0 84 -4 143 -10 147 -6 3 -13 0 -16 -9z"/>
<path d="M10526 3931 c-4 -7 -5 -15 -2 -18 9 -9 19 4 14 18 -4 11 -6 11 -12 0z"/>
<path d="M9396 3907 c-14 -14 -26 -36 -26 -47 0 -30 18 -60 35 -60 12 0 13 4
4 18 -7 11 -9 31 -5 46 13 53 95 60 118 11 14 -32 28 -32 28 -1 0 33 -19 46
-78 53 -45 5 -53 3 -76 -20z"/>
<path d="M6510 3901 c0 -10 10 -33 23 -52 36 -54 57 -115 57 -169 0 -49 12
-66 24 -34 3 9 6 33 6 54 0 25 14 69 40 122 21 45 37 84 35 86 -9 9 -27 -13
-51 -63 -14 -30 -30 -57 -35 -61 -15 -9 -41 30 -69 104 -14 35 -30 43 -30 13z"/>
<path d="M7685 3914 c-6 -2 -8 -40 -4 -101 4 -54 7 -115 8 -135 1 -21 6 -38
11 -38 6 0 10 50 10 130 0 80 4 130 10 130 6 0 10 5 10 10 0 10 -26 12 -45 4z"/>
<path d="M11290 3775 c0 -146 12 -190 24 -92 8 58 8 59 2 139 -6 70 6 83 69
75 53 -5 85 -30 85 -64 0 -32 -43 -73 -75 -73 -15 0 -24 -4 -20 -10 16 -26 87
-1 104 37 22 48 6 103 -36 122 -13 6 -53 11 -88 11 l-65 0 0 -145z"/>
<path d="M12027 3913 c-4 -3 -7 -19 -7 -35 0 -18 -5 -28 -15 -28 -8 0 -15 -4
-15 -10 0 -5 7 -10 15 -10 12 0 15 -15 16 -67 2 -99 10 -127 37 -131 23 -4 31
13 10 20 -20 7 -24 151 -5 169 12 13 13 18 1 34 -8 10 -14 29 -14 42 0 23 -10
30 -23 16z"/>
<path d="M8560 3884 c0 -17 -6 -28 -20 -31 -11 -3 -20 -9 -20 -13 0 -4 9 -10
20 -13 18 -5 20 -14 20 -89 0 -87 8 -108 42 -108 22 0 23 9 2 24 -12 9 -16 31
-18 85 -2 80 0 86 29 94 19 5 19 5 -3 12 -15 5 -25 18 -29 36 -7 36 -23 38
-23 3z"/>
<path d="M10356 3903 c-3 -3 -6 -17 -6 -30 0 -14 -6 -23 -15 -23 -8 0 -15 -4
-15 -10 0 -5 6 -10 14 -10 20 0 26 -23 26 -105 0 -63 3 -76 19 -85 25 -13 51
-13 51 0 0 6 -9 10 -20 10 -25 0 -32 27 -28 110 3 58 5 65 27 70 l24 5 -27 12
c-15 8 -26 21 -26 32 0 21 -13 35 -24 24z"/>
<path d="M6844 3850 c-36 -14 -64 -63 -64 -113 0 -28 5 -47 13 -50 11 -4 13 7
9 47 -4 48 -2 55 23 74 33 26 72 28 103 6 33 -23 32 -105 -3 -139 -27 -28 -41
-30 -81 -15 -32 12 -42 6 -24 -15 14 -17 81 -20 111 -5 68 37 62 167 -11 205
-32 17 -45 18 -76 5z"/>
<path d="M8340 3847 c-18 -9 -26 -22 -28 -45 -4 -43 11 -61 60 -68 38 -7 68
-26 68 -44 0 -17 -32 -40 -54 -40 -13 0 -35 9 -50 21 -26 21 -36 10 -17 -20
14 -22 94 -26 114 -6 30 30 33 66 6 86 -13 10 -34 19 -45 19 -12 0 -32 9 -45
19 -20 16 -22 23 -13 38 14 23 67 29 84 9 16 -20 30 -20 30 -1 0 15 -48 45
-72 45 -7 0 -24 -6 -38 -13z"/>
<path d="M8774 3850 c-39 -16 -64 -59 -64 -111 0 -40 5 -53 30 -79 40 -41 99
-43 129 -3 12 14 19 29 15 32 -3 3 -11 -2 -18 -11 -7 -10 -27 -21 -44 -24 -58
-12 -116 51 -75 81 10 9 13 14 6 15 -19 0 -15 45 5 63 26 23 78 21 103 -4 29
-29 21 -53 -21 -60 -29 -5 -30 -7 -10 -9 29 -3 63 0 69 6 2 2 -4 24 -14 49
-22 58 -59 76 -111 55z"/>
<path d="M9700 3849 c-42 -16 -60 -49 -60 -107 0 -46 4 -58 29 -83 22 -22 39
-29 68 -29 47 0 55 6 76 49 31 62 15 141 -34 166 -32 17 -44 18 -79 4z m87
-45 c22 -22 25 -32 20 -72 -12 -109 -132 -111 -144 -2 -10 87 66 132 124 74z"/>
<path d="M7066 3843 c-3 -3 -6 -40 -6 -80 0 -71 10 -110 34 -125 19 -13 71 -9
92 7 25 19 34 19 34 -1 0 -9 6 -14 13 -11 8 2 12 33 12 107 0 74 -4 105 -12
108 -10 3 -13 -16 -13 -73 0 -67 -3 -79 -25 -100 -28 -29 -51 -31 -83 -9 -20
13 -22 24 -22 94 0 73 -8 99 -24 83z"/>
<path d="M7330 3739 c0 -84 3 -110 13 -107 8 3 13 32 15 87 l3 82 34 16 c19 9
35 20 35 25 0 12 -34 9 -49 -4 -11 -10 -14 -10 -18 0 -3 6 -11 12 -19 12 -11
0 -14 -22 -14 -111z"/>
<path d="M7870 3746 c0 -59 4 -108 10 -111 6 -4 10 18 10 60 0 82 18 121 61
130 22 5 28 10 20 18 -7 7 -18 7 -37 -2 -19 -8 -30 -9 -38 -1 -22 22 -26 7
-26 -94z"/>
<path d="M8036 3843 c-12 -13 -6 -144 9 -172 19 -38 64 -52 109 -35 27 10 18
24 -12 18 -19 -4 -36 1 -55 16 -25 20 -27 27 -27 95 0 68 -8 94 -24 78z"/>
<path d="M8198 3773 c-3 -43 -8 -85 -11 -93 -7 -16 19 -57 29 -47 12 12 10
210 -2 214 -8 2 -13 -23 -16 -74z"/>
<path d="M10066 3843 c-3 -3 -6 -34 -6 -68 0 -64 15 -124 34 -137 19 -13 84
-9 100 7 8 8 17 15 20 15 3 0 6 -7 6 -15 0 -8 7 -15 15 -15 12 0 15 19 15 111
0 84 -3 110 -12 107 -9 -3 -15 -34 -18 -87 -5 -89 -19 -111 -67 -111 -45 0
-63 32 -63 114 0 69 -8 95 -24 79z"/>
<path d="M10520 3739 c0 -74 4 -109 11 -107 6 2 10 7 10 11 -1 4 -1 52 -1 107
0 60 -4 100 -10 100 -6 0 -10 -44 -10 -111z"/>
<path d="M10672 3843 c-20 -8 -42 -59 -42 -98 0 -86 46 -126 127 -110 28 5 37
13 50 43 21 51 13 130 -17 154 -21 17 -87 24 -118 11z m102 -32 c25 -28 31
-83 12 -119 -43 -82 -148 -30 -132 66 7 47 32 72 71 72 18 0 39 -8 49 -19z"/>
<path d="M10907 3843 c-4 -3 -7 -53 -7 -110 0 -85 3 -103 15 -103 12 0 15 15
15 76 0 41 4 83 10 93 7 14 5 23 -9 35 -10 9 -21 13 -24 9z"/>
<path d="M10973 3843 c-24 -9 -13 -20 17 -15 18 2 40 -2 55 -12 22 -14 24 -23
27 -98 4 -99 22 -111 26 -18 4 77 -2 104 -28 130 -19 19 -67 26 -97 13z"/>
<path d="M11582 3838 c-13 -13 -16 -38 -4 -38 4 0 16 7 26 15 78 59 161 -71
91 -140 -46 -47 -106 -24 -127 48 l-12 42 -4 -32 c-3 -30 18 -78 43 -95 20
-15 75 -8 95 12 25 25 30 25 30 -1 0 -12 5 -19 13 -17 8 3 13 37 15 111 2 91
0 107 -13 107 -8 0 -15 -7 -15 -15 0 -8 -4 -15 -9 -15 -5 0 -14 7 -21 15 -15
18 -91 20 -108 3z"/>
<path d="M11834 3837 c-10 -28 1 -200 14 -205 9 -3 12 16 12 71 0 80 16 115
54 121 25 3 34 26 11 26 -9 0 -26 -5 -38 -11 -16 -9 -22 -9 -25 0 -5 15 -21
14 -28 -2z"/>
<path d="M12186 3843 c-3 -4 -6 -51 -6 -105 0 -75 3 -99 13 -96 7 3 14 33 17
82 6 87 19 106 76 106 49 0 64 -28 64 -123 0 -58 3 -78 13 -75 7 3 13 27 15
59 7 112 -19 159 -86 159 -21 0 -44 -6 -50 -12 -10 -10 -17 -10 -31 -1 -10 7
-22 9 -25 6z"/>
<path d="M12497 3839 c-43 -25 -60 -106 -32 -158 27 -54 130 -67 156 -20 15
29 4 34 -20 10 -12 -12 -34 -21 -51 -21 -58 0 -95 71 -47 90 17 7 18 9 4 9
-26 1 -32 27 -13 56 13 20 25 25 56 25 31 0 43 -5 56 -25 18 -28 13 -55 -11
-55 -9 0 -14 -4 -11 -9 3 -4 17 -6 31 -3 32 6 34 48 4 86 -16 21 -29 26 -62
26 -23 0 -50 -5 -60 -11z"/>
<path d="M12727 3843 c-4 -3 -7 -53 -7 -110 0 -80 3 -104 13 -100 8 3 11 22 9
62 -5 86 2 103 51 125 31 14 37 20 25 25 -9 4 -27 1 -39 -6 -17 -9 -24 -9 -27
0 -4 12 -15 14 -25 4z"/>
<path d="M9498 3763 c56 -27 52 -95 -6 -108 -39 -8 -80 9 -94 40 -11 25 -28
34 -28 15 0 -20 29 -68 45 -74 49 -18 119 -2 134 30 27 61 2 114 -55 114 l-29
0 33 -17z"/>
</g>
</svg>
